<?xml version="1.0" encoding="UTF-8"?>
<!--
  - /*
  -  * Copyright Amazon.com, Inc. or its affiliates. All Rights Reserved.
  -  * SPDX-License-Identifier: MIT-0
  -  */
  -->

<svg width="44px" height="44px" viewBox="0 0 44 44" version="1.1" xmlns="http://www.w3.org/2000/svg" xmlns:xlink="http://www.w3.org/1999/xlink">
    <title>football</title>
    <g id="football" stroke="none" stroke-width="1" fill="none" fill-rule="evenodd">
        <path d="M29.81,5.5 C33.6783333,5.5 36.6483333,6.16 37.235,6.765 C38.6833333,8.21333333 40.5716667,23.7416667 32.1566667,32.1566667 C27.1883333,37.125 19.745,38.5 14.19,38.5 C10.3216667,38.5 7.35166667,37.84 6.765,37.235 C5.31666667,35.7866667 3.42833333,20.2583333 11.8433333,11.8433333 C16.8116667,6.875 24.255,5.5 29.81,5.5 Z M9.24,27.39 C9.00166667,30.36 9.22166667,32.9633333 9.55166667,34.4116667 C10.4866667,34.6133333 12.1,34.8333333 14.19,34.8333333 C14.8133333,34.8333333 15.6383333,34.815 16.5916667,34.7416667 L16.5916667,34.7416667 Z M22.9533333,9.99166667 C20.0383333,10.7066667 16.8666667,12.0266667 14.4466667,14.4466667 C12.0816667,16.7933333 10.725,19.8916667 9.955,22.9716667 L9.955,22.9716667 L21.0283333,34.045 C23.9616667,33.33 27.1333333,32.01 29.5716667,29.5716667 C31.9,27.225 33.275,24.145 34.045,21.0833333 L34.045,21.0833333 Z M25.8497928,15.5832508 L28.4165658,18.1500238 L18.1494738,28.4171158 L15.5827008,25.8503428 L25.8497928,15.5832508 Z M29.81,9.16666667 C29.1683333,9.16666667 28.325,9.185 27.3716667,9.27666667 L27.3716667,9.27666667 L34.76,16.665 C34.9983333,13.6583333 34.7783333,11.0366667 34.4483333,9.58833333 C33.5133333,9.38666667 31.9,9.16666667 29.81,9.16666667 Z" id="football_gradiant" fill="#2A313F" fill-rule="nonzero"></path>
    </g>
</svg>