<?xml version="1.0" encoding="UTF-8"?>
<!--
  - /*
  -  * Copyright Amazon.com, Inc. or its affiliates. All Rights Reserved.
  -  * SPDX-License-Identifier: MIT-0
  -  */
  -->

<svg width="200px" height="200px" viewBox="0 0 200 200" version="1.1" xmlns="http://www.w3.org/2000/svg" xmlns:xlink="http://www.w3.org/1999/xlink">
    <title>football_gradiant</title>
    <defs>
        <linearGradient x1="50%" y1="0%" x2="50%" y2="100%" id="linearGradient-1">
            <stop stop-color="#FF9400" offset="0%"></stop>
            <stop stop-color="#FF8FFF" offset="79.7542138%"></stop>
            <stop stop-color="#7B91F5" offset="100%"></stop>
        </linearGradient>
    </defs>
    <g id="football_gradiant" stroke="none" stroke-width="1" fill="none" fill-rule="evenodd">
        <path d="M135.5,25 C153.083333,25 166.583333,28 169.25,30.75 C175.833333,37.3333333 184.416667,107.916667 146.166667,146.166667 C123.583333,168.75 89.75,175 64.5,175 C46.9166667,175 33.4166667,172 30.75,169.25 C24.1666667,162.666667 15.5833333,92.0833333 53.8333333,53.8333333 C76.4166667,31.25 110.25,25 135.5,25 Z M42,124.5 C40.9166667,138 41.9166667,149.833333 43.4166667,156.416667 C47.6666667,157.333333 55,158.333333 64.5,158.333333 C67.3333333,158.333333 71.0833333,158.25 75.4166667,157.916667 L75.4166667,157.916667 Z M104.333333,45.4166667 C91.0833333,48.6666667 76.6666667,54.6666667 65.6666667,65.6666667 C54.9166667,76.3333333 48.75,90.4166667 45.25,104.416667 L45.25,104.416667 L95.5833333,154.75 C108.916667,151.5 123.333333,145.5 134.416667,134.416667 C145,123.75 151.25,109.75 154.75,95.8333333 L154.75,95.8333333 Z M117.499058,70.8329583 L129.166208,82.5001083 L82.4976083,129.168708 L70.8304583,117.501558 L117.499058,70.8329583 Z M135.5,41.6666667 C132.583333,41.6666667 128.75,41.75 124.416667,42.1666667 L124.416667,42.1666667 L158,75.75 C159.083333,62.0833333 158.083333,50.1666667 156.583333,43.5833333 C152.333333,42.6666667 145,41.6666667 135.5,41.6666667 Z" fill="url(#linearGradient-1)" fill-rule="nonzero"></path>
    </g>
</svg>