<?xml version="1.0" encoding="UTF-8"?>
<!--
  - /*
  -  * Copyright Amazon.com, Inc. or its affiliates. All Rights Reserved.
  -  * SPDX-License-Identifier: MIT-0
  -  */
  -->

<svg width="44px" height="44px" viewBox="0 0 44 44" version="1.1" xmlns="http://www.w3.org/2000/svg" xmlns:xlink="http://www.w3.org/1999/xlink">
    <title>golf</title>
    <g id="golf" stroke="none" stroke-width="1" fill="none" fill-rule="evenodd">
        <path d="M16.5,3.66666667 L31.1666667,10.8533333 L20.1666667,16.4633333 L20.1666667,33.055 C25.3733333,33.3483333 29.3333333,34.8516667 29.3333333,36.6666667 C29.3333333,38.6833333 24.4016667,40.3333333 18.3333333,40.3333333 C12.265,40.3333333 7.33333333,38.6833333 7.33333333,36.6666667 C7.33333333,35.31 9.55166667,34.1366667 12.8333333,33.495 L12.8333333,33.495 L12.8333333,36.6666667 L16.5,36.6666667 L16.5,3.66666667 Z M35.75,33 C37.2687831,33 38.5,34.2312169 38.5,35.75 C38.5,37.2687831 37.2687831,38.5 35.75,38.5 C34.2312169,38.5 33,37.2687831 33,35.75 C33,34.2312169 34.2312169,33 35.75,33 Z" id="golf_gradiant" fill="#2A313F" fill-rule="nonzero"></path>
    </g>
</svg>