<?xml version="1.0" encoding="UTF-8"?>
<!--
  - /*
  -  * Copyright Amazon.com, Inc. or its affiliates. All Rights Reserved.
  -  * SPDX-License-Identifier: MIT-0
  -  */
  -->

<svg width="200px" height="200px" viewBox="0 0 200 200" version="1.1" xmlns="http://www.w3.org/2000/svg" xmlns:xlink="http://www.w3.org/1999/xlink">
    <title>soccer_gradiant</title>
    <defs>
        <linearGradient x1="50%" y1="0%" x2="50%" y2="100%" id="linearGradient-1">
            <stop stop-color="#FF9400" offset="0%"></stop>
            <stop stop-color="#FF8FFF" offset="79.7542138%"></stop>
            <stop stop-color="#7B91F5" offset="100%"></stop>
        </linearGradient>
    </defs>
    <g id="soccer_gradiant" stroke="none" stroke-width="1" fill="none" fill-rule="evenodd">
        <path d="M100,16.6666667 C54,16.6666667 16.6666667,54 16.6666667,100 C16.6666667,146 54,183.333333 100,183.333333 C146,183.333333 183.333333,146 183.333333,100 C183.333333,54 146,16.6666667 100,16.6666667 Z M108.333333,44.1666667 L119.583333,36.25 C134.75,40.9166667 147.666667,50.9166667 156.083333,64.0833333 L152.833333,75.25 L141.583333,79.0833333 L108.333333,55.8333333 L108.333333,44.1666667 Z M80.4166667,36.25 L91.6666667,44.1666667 L91.6666667,55.8333333 L58.4166667,79.0833333 L47.1666667,75.25 L43.9166667,64.0833333 C52.3333333,51 65.25,41 80.4166667,36.25 Z M59,142.583333 L49.5,143.416667 C39.4166667,131.75 33.3333333,116.583333 33.3333333,100 C33.3333333,99 33.4166667,98.0833333 33.5,97.0833333 L41.8333333,91 L53.3333333,95 L65.5,131.166667 L59,142.583333 Z M120.833333,163.25 C114.25,165.416667 107.25,166.666667 100,166.666667 C92.75,166.666667 85.75,165.416667 79.1666667,163.25 L73.4166667,150.833333 L78.75,141.666667 L121.333333,141.666667 L126.666667,150.916667 L120.833333,163.25 Z M118.916667,125 L81.0833333,125 L69.8333333,91.5 L100,70.3333333 L130.25,91.5 L118.916667,125 Z M150.5,143.416667 L141,142.583333 L134.416667,131.166667 L146.583333,95 L158.166667,91.0833333 L166.5,97.1666667 C166.583333,98.0833333 166.666667,99 166.666667,100 C166.666667,116.583333 160.583333,131.75 150.5,143.416667 Z" fill="url(#linearGradient-1)" fill-rule="nonzero"></path>
    </g>
</svg>