<?xml version="1.0" encoding="UTF-8"?>
<!--
  - /*
  -  * Copyright Amazon.com, Inc. or its affiliates. All Rights Reserved.
  -  * SPDX-License-Identifier: MIT-0
  -  */
  -->

<svg width="44px" height="44px" viewBox="0 0 44 44" version="1.1" xmlns="http://www.w3.org/2000/svg" xmlns:xlink="http://www.w3.org/1999/xlink">
    <title>soccer</title>
    <g id="soccer" stroke="none" stroke-width="1" fill="none" fill-rule="evenodd">
        <path d="M22,3.66666667 C11.88,3.66666667 3.66666667,11.88 3.66666667,22 C3.66666667,32.12 11.88,40.3333333 22,40.3333333 C32.12,40.3333333 40.3333333,32.12 40.3333333,22 C40.3333333,11.88 32.12,3.66666667 22,3.66666667 Z M23.8333333,9.71666667 L26.3083333,7.975 C29.645,9.00166667 32.4866667,11.2016667 34.3383333,14.0983333 L33.6233333,16.555 L31.1483333,17.3983333 L23.8333333,12.2833333 L23.8333333,9.71666667 Z M17.6916667,7.975 L20.1666667,9.71666667 L20.1666667,12.2833333 L12.8516667,17.3983333 L10.3766667,16.555 L9.66166667,14.0983333 C11.5133333,11.22 14.355,9.02 17.6916667,7.975 Z M12.98,31.3683333 L10.89,31.5516667 C8.67166667,28.985 7.33333333,25.6483333 7.33333333,22 C7.33333333,21.78 7.35166667,21.5783333 7.37,21.3583333 L9.20333333,20.02 L11.7333333,20.9 L14.41,28.8566667 L12.98,31.3683333 Z M26.5833333,35.915 C25.135,36.3916667 23.595,36.6666667 22,36.6666667 C20.405,36.6666667 18.865,36.3916667 17.4166667,35.915 L16.1516667,33.1833333 L17.325,31.1666667 L26.6933333,31.1666667 L27.8666667,33.2016667 L26.5833333,35.915 Z M26.1616667,27.5 L17.8383333,27.5 L15.3633333,20.13 L22,15.4733333 L28.655,20.13 L26.1616667,27.5 Z M33.11,31.5516667 L31.02,31.3683333 L29.5716667,28.8566667 L32.2483333,20.9 L34.7966667,20.0383333 L36.63,21.3766667 C36.6483333,21.5783333 36.6666667,21.78 36.6666667,22 C36.6666667,25.6483333 35.3283333,28.985 33.11,31.5516667 Z" id="soccer_gradiant" fill="#2A313F" fill-rule="nonzero"></path>
    </g>
</svg>