<?xml version="1.0" encoding="UTF-8"?>
<!--
  - /*
  -  * Copyright Amazon.com, Inc. or its affiliates. All Rights Reserved.
  -  * SPDX-License-Identifier: MIT-0
  -  */
  -->

<svg width="44px" height="44px" viewBox="0 0 44 44" version="1.1" xmlns="http://www.w3.org/2000/svg" xmlns:xlink="http://www.w3.org/1999/xlink">
    <title>swimming</title>
    <g id="swimming" stroke="none" stroke-width="1" fill="none" fill-rule="evenodd">
        <path d="M34.2283333,33 C36.2633333,33 37.4,33.6783333 38.225,34.1733333 C38.9033333,34.595 39.3066667,34.8333333 40.3333333,34.8333333 L40.3333333,34.8333333 L40.3333333,38.5 C38.2983333,38.5 37.1616667,37.8216667 36.3366667,37.3266667 C35.6583333,36.9233333 35.2366667,36.6666667 34.2283333,36.6666667 C33.2016667,36.6666667 32.7983333,36.905 32.12,37.3266667 C31.2766667,37.8216667 30.1583333,38.5 28.1233333,38.5 C26.0883333,38.5 24.9516667,37.8216667 24.1266667,37.3266667 C23.4483333,36.9233333 23.0266667,36.6666667 22.0183333,36.6666667 C20.9916667,36.6666667 20.5883333,36.905 19.91,37.3266667 C19.0666667,37.8216667 17.93,38.5 15.895,38.5 C13.86,38.5 12.7233333,37.8216667 11.8983333,37.3266667 C11.22,36.905 10.7983333,36.6666667 9.79,36.6666667 C8.78166667,36.6666667 8.36,36.905 7.68166667,37.3266667 C6.83833333,37.8216667 5.70166667,38.5 3.66666667,38.5 L3.66666667,38.5 L3.66666667,34.8333333 C4.69333333,34.8333333 5.09666667,34.595 5.775,34.1733333 C6.61833333,33.6783333 7.755,33 9.79,33 C11.825,33 12.9616667,33.6783333 13.7866667,34.1733333 C14.465,34.595 14.8683333,34.8333333 15.895,34.8333333 C16.9216667,34.8333333 17.325,34.595 18.0033333,34.1733333 C18.8466667,33.6783333 19.9833333,33 22.0183333,33 C24.0533333,33 25.19,33.6783333 26.015,34.1733333 C26.6933333,34.5766667 27.115,34.8333333 28.1233333,34.8333333 C29.1316667,34.8333333 29.5533333,34.595 30.2316667,34.1733333 C31.0566667,33.6783333 32.1933333,33 34.2283333,33 Z M34.1916667,24.75 C36.2266667,24.75 37.3633333,25.4283333 38.1883333,25.9233333 C38.8666667,26.3266667 39.2883333,26.5833333 40.2966667,26.5833333 L40.2966667,26.5833333 L40.2966667,30.25 C38.28,30.2316667 37.1616667,29.5716667 36.3366667,29.0766667 C35.6583333,28.6733333 35.2366667,28.4166667 34.2283333,28.4166667 C33.2016667,28.4166667 32.7983333,28.655 32.12,29.0766667 C31.295,29.5716667 30.1583333,30.25 28.1233333,30.25 C26.0883333,30.25 24.9516667,29.5716667 24.1266667,29.0766667 C23.4483333,28.6733333 23.0266667,28.4166667 22.0183333,28.4166667 C20.9916667,28.4166667 20.5883333,28.655 19.91,29.0766667 C19.085,29.5716667 17.9483333,30.25 15.9133333,30.25 C13.8783333,30.25 12.7416667,29.5716667 11.9166667,29.0766667 C11.2383333,28.6733333 10.8166667,28.4166667 9.80833333,28.4166667 C8.8,28.4166667 8.37833333,28.655 7.7,29.0766667 C6.83833333,29.5716667 5.70166667,30.25 3.66666667,30.25 L3.66666667,30.25 L3.66666667,26.5833333 C4.69333333,26.5833333 5.09666667,26.345 5.775,25.9233333 C6.6,25.4283333 7.73666667,24.75 9.77166667,24.75 C11.8066667,24.75 12.9433333,25.4283333 13.7683333,25.9233333 C14.4466667,26.3266667 14.8683333,26.5833333 15.8766667,26.5833333 C16.9033333,26.5833333 17.3066667,26.345 17.985,25.9233333 C18.81,25.4283333 19.9466667,24.75 21.9816667,24.75 C24.0166667,24.75 25.1533333,25.4283333 25.9783333,25.9233333 C26.6566667,26.3266667 27.0783333,26.5833333 28.0866667,26.5833333 C29.095,26.5833333 29.5166667,26.345 30.195,25.9233333 C31.02,25.4283333 32.1566667,24.75 34.1916667,24.75 Z M9.16666667,5.5 C13.75,5.48166667 16.3716667,6.325 19.2133333,9.16666667 L19.2133333,9.16666667 L30.9833333,20.9183333 C30.7083333,21.065 30.4516667,21.2116667 30.2316667,21.34 C29.5533333,21.7616667 29.1316667,22 28.1233333,22 C27.115,22 26.6933333,21.7433333 26.015,21.34 C25.19,20.845 24.0533333,20.1666667 22.0183333,20.1666667 C19.9833333,20.1666667 18.8466667,20.845 18.0033333,21.34 C17.325,21.7616667 16.9216667,22 15.895,22 C14.8683333,22 14.465,21.7616667 13.7866667,21.34 C13.4016667,21.12 12.9433333,20.845 12.375,20.625 L12.375,20.625 L18.3333333,14.6666667 L16.5,12.8333333 C14.465,10.7983333 12.5033333,10.065 9.16666667,10.0833333 L9.16666667,10.0833333 Z M30.25,5.5 C32.7813051,5.5 34.8333333,7.55202823 34.8333333,10.0833333 C34.8333333,12.6146384 32.7813051,14.6666667 30.25,14.6666667 C27.7186949,14.6666667 25.6666667,12.6146384 25.6666667,10.0833333 C25.6666667,7.55202823 27.7186949,5.5 30.25,5.5 Z" id="swimming_gradiant" fill="#2A313F" fill-rule="nonzero"></path>
    </g>
</svg>