<?xml version="1.0" encoding="UTF-8"?>
<!--
  - /*
  -  * Copyright Amazon.com, Inc. or its affiliates. All Rights Reserved.
  -  * SPDX-License-Identifier: MIT-0
  -  */
  -->

<svg width="200px" height="200px" viewBox="0 0 200 200" version="1.1" xmlns="http://www.w3.org/2000/svg" xmlns:xlink="http://www.w3.org/1999/xlink">
    <title>swimming_gradiant</title>
    <defs>
        <linearGradient x1="50%" y1="0%" x2="50%" y2="100%" id="linearGradient-1">
            <stop stop-color="#FF9400" offset="0%"></stop>
            <stop stop-color="#FF8FFF" offset="79.7542138%"></stop>
            <stop stop-color="#7B91F5" offset="100%"></stop>
        </linearGradient>
    </defs>
    <g id="swimming_gradiant" stroke="none" stroke-width="1" fill="none" fill-rule="evenodd">
        <path d="M155.583333,150 C164.833333,150 170,153.083333 173.75,155.333333 C176.833333,157.25 178.666667,158.333333 183.333333,158.333333 L183.333333,158.333333 L183.333333,175 C174.083333,175 168.916667,171.916667 165.166667,169.666667 C162.083333,167.833333 160.166667,166.666667 155.583333,166.666667 C150.916667,166.666667 149.083333,167.75 146,169.666667 C142.166667,171.916667 137.083333,175 127.833333,175 C118.583333,175 113.416667,171.916667 109.666667,169.666667 C106.583333,167.833333 104.666667,166.666667 100.083333,166.666667 C95.4166667,166.666667 93.5833333,167.75 90.5,169.666667 C86.6666667,171.916667 81.5,175 72.25,175 C63,175 57.8333333,171.916667 54.0833333,169.666667 C51,167.75 49.0833333,166.666667 44.5,166.666667 C39.9166667,166.666667 38,167.75 34.9166667,169.666667 C31.0833333,171.916667 25.9166667,175 16.6666667,175 L16.6666667,175 L16.6666667,158.333333 C21.3333333,158.333333 23.1666667,157.25 26.25,155.333333 C30.0833333,153.083333 35.25,150 44.5,150 C53.75,150 58.9166667,153.083333 62.6666667,155.333333 C65.75,157.25 67.5833333,158.333333 72.25,158.333333 C76.9166667,158.333333 78.75,157.25 81.8333333,155.333333 C85.6666667,153.083333 90.8333333,150 100.083333,150 C109.333333,150 114.5,153.083333 118.25,155.333333 C121.333333,157.166667 123.25,158.333333 127.833333,158.333333 C132.416667,158.333333 134.333333,157.25 137.416667,155.333333 C141.166667,153.083333 146.333333,150 155.583333,150 Z M155.416667,112.5 C164.666667,112.5 169.833333,115.583333 173.583333,117.833333 C176.666667,119.666667 178.583333,120.833333 183.166667,120.833333 L183.166667,120.833333 L183.166667,137.5 C174,137.416667 168.916667,134.416667 165.166667,132.166667 C162.083333,130.333333 160.166667,129.166667 155.583333,129.166667 C150.916667,129.166667 149.083333,130.25 146,132.166667 C142.25,134.416667 137.083333,137.5 127.833333,137.5 C118.583333,137.5 113.416667,134.416667 109.666667,132.166667 C106.583333,130.333333 104.666667,129.166667 100.083333,129.166667 C95.4166667,129.166667 93.5833333,130.25 90.5,132.166667 C86.75,134.416667 81.5833333,137.5 72.3333333,137.5 C63.0833333,137.5 57.9166667,134.416667 54.1666667,132.166667 C51.0833333,130.333333 49.1666667,129.166667 44.5833333,129.166667 C40,129.166667 38.0833333,130.25 35,132.166667 C31.0833333,134.416667 25.9166667,137.5 16.6666667,137.5 L16.6666667,137.5 L16.6666667,120.833333 C21.3333333,120.833333 23.1666667,119.75 26.25,117.833333 C30,115.583333 35.1666667,112.5 44.4166667,112.5 C53.6666667,112.5 58.8333333,115.583333 62.5833333,117.833333 C65.6666667,119.666667 67.5833333,120.833333 72.1666667,120.833333 C76.8333333,120.833333 78.6666667,119.75 81.75,117.833333 C85.5,115.583333 90.6666667,112.5 99.9166667,112.5 C109.166667,112.5 114.333333,115.583333 118.083333,117.833333 C121.166667,119.666667 123.083333,120.833333 127.666667,120.833333 C132.25,120.833333 134.166667,119.75 137.25,117.833333 C141,115.583333 146.166667,112.5 155.416667,112.5 Z M41.6666667,25 C62.5,24.9166667 74.4166667,28.75 87.3333333,41.6666667 L87.3333333,41.6666667 L140.833333,95.0833333 C139.583333,95.75 138.416667,96.4166667 137.416667,97 C134.333333,98.9166667 132.416667,100 127.833333,100 C123.25,100 121.333333,98.8333333 118.25,97 C114.5,94.75 109.333333,91.6666667 100.083333,91.6666667 C90.8333333,91.6666667 85.6666667,94.75 81.8333333,97 C78.75,98.9166667 76.9166667,100 72.25,100 C67.5833333,100 65.75,98.9166667 62.6666667,97 C60.9166667,96 58.8333333,94.75 56.25,93.75 L56.25,93.75 L83.3333333,66.6666667 L75,58.3333333 C65.75,49.0833333 56.8333333,45.75 41.6666667,45.8333333 L41.6666667,45.8333333 Z M137.5,25 C149.005932,25 158.333333,34.327401 158.333333,45.8333333 C158.333333,57.3392656 149.005932,66.6666667 137.5,66.6666667 C125.994068,66.6666667 116.666667,57.3392656 116.666667,45.8333333 C116.666667,34.327401 125.994068,25 137.5,25 Z" fill="url(#linearGradient-1)" fill-rule="nonzero"></path>
    </g>
</svg>