<?xml version="1.0" encoding="UTF-8"?>
<!--
  - /*
  -  * Copyright Amazon.com, Inc. or its affiliates. All Rights Reserved.
  -  * SPDX-License-Identifier: MIT-0
  -  */
  -->

<svg width="200px" height="200px" viewBox="0 0 200 200" version="1.1" xmlns="http://www.w3.org/2000/svg" xmlns:xlink="http://www.w3.org/1999/xlink">
    <title>tennis_gradiant</title>
    <defs>
        <linearGradient x1="50%" y1="0%" x2="50%" y2="100%" id="linearGradient-1">
            <stop stop-color="#FF9400" offset="0%"></stop>
            <stop stop-color="#FF8FFF" offset="79.7542138%"></stop>
            <stop stop-color="#7B91F5" offset="100%"></stop>
        </linearGradient>
    </defs>
    <g id="tennis_gradiant" stroke="none" stroke-width="1" fill="none" fill-rule="evenodd">
        <path d="M150,125 C158.5,125 167.083333,128.25 173.583333,134.75 C186.583333,147.833333 186.583333,168.916667 173.583333,181.916667 C167.083333,188.416667 158.5,191.666667 150,191.666667 C141.5,191.666667 132.916667,188.416667 126.416667,181.916667 C113.416667,168.833333 113.416667,147.75 126.416667,134.75 C132.916667,128.25 141.5,125 150,125 Z M150,141.666667 C145.583333,141.666667 141.333333,143.416667 138.25,146.5 C131.75,153 131.75,163.583333 138.25,170.083333 C141.333333,173.25 145.583333,175 150,175 C154.416667,175 158.666667,173.25 161.75,170.166667 C168.25,163.666667 168.25,153.083333 161.75,146.583333 C158.666667,143.416667 154.416667,141.666667 150,141.666667 Z M83.0833333,29.5833333 C107.5,5.16666667 143.166667,1.25 162.666667,20.75 C182.166667,40.25 178.166667,75.9166667 153.833333,100.333333 C140.5,113.666667 121.5,121.333333 108.333333,121.5 C95.1666667,121.666667 75.9166667,119.333333 62.5,132.75 L62.5,132.75 L27.1666667,168.083333 L15.3333333,156.25 L50.6666667,120.916667 C63.4057239,108.177609 61.9455158,90.179565 61.9081938,77.123299 L61.9078944,76.2967299 C61.9088613,75.8868993 61.9116162,75.4823232 61.9166667,75.0833333 C62.0833333,61.8333333 69.75,42.9166667 83.0833333,29.5833333 Z M150.833333,32.5 C138,19.75 112.416667,23.75 94.8333333,41.3333333 C77.25,58.9166667 73.25,84.5833333 86,97.3333333 C98.8333333,110.083333 124.416667,106.083333 142,88.5 C159.583333,70.9166667 163.583333,45.25 150.833333,32.5 Z" fill="url(#linearGradient-1)" fill-rule="nonzero"></path>
    </g>
</svg>