<?xml version="1.0" encoding="UTF-8"?>
<!--
  - /*
  -  * Copyright Amazon.com, Inc. or its affiliates. All Rights Reserved.
  -  * SPDX-License-Identifier: MIT-0
  -  */
  -->

<svg width="44px" height="44px" viewBox="0 0 44 44" version="1.1" xmlns="http://www.w3.org/2000/svg" xmlns:xlink="http://www.w3.org/1999/xlink">
    <title>tennis</title>
    <g id="tennis" stroke="none" stroke-width="1" fill="none" fill-rule="evenodd">
        <path d="M33,27.5 C34.87,27.5 36.7583333,28.215 38.1883333,29.645 C41.0483333,32.5233333 41.0483333,37.1616667 38.1883333,40.0216667 C36.7583333,41.4516667 34.87,42.1666667 33,42.1666667 C31.13,42.1666667 29.2416667,41.4516667 27.8116667,40.0216667 C24.9516667,37.1433333 24.9516667,32.505 27.8116667,29.645 C29.2416667,28.215 31.13,27.5 33,27.5 Z M33,31.1666667 C32.0283333,31.1666667 31.0933333,31.5516667 30.415,32.23 C28.985,33.66 28.985,35.9883333 30.415,37.4183333 C31.0933333,38.115 32.0283333,38.5 33,38.5 C33.9716667,38.5 34.9066667,38.115 35.585,37.4366667 C37.015,36.0066667 37.015,33.6783333 35.585,32.2483333 C34.9066667,31.5516667 33.9716667,31.1666667 33,31.1666667 Z M18.2783333,6.50833333 C23.65,1.13666667 31.4966667,0.275 35.7866667,4.565 C40.0766667,8.855 39.1966667,16.7016667 33.8433333,22.0733333 C30.91,25.0066667 26.73,26.6933333 23.8333333,26.73 C20.9366667,26.7666667 16.7016667,26.2533333 13.75,29.205 L13.75,29.205 L5.97666667,36.9783333 L3.37333333,34.375 L11.1466667,26.6016667 C14.0983333,23.65 13.585,19.415 13.6216667,16.5183333 C13.6583333,13.6033333 15.345,9.44166667 18.2783333,6.50833333 Z M33.1833333,7.15 C30.36,4.345 24.7316667,5.225 20.8633333,9.09333333 C16.995,12.9616667 16.115,18.6083333 18.92,21.4133333 C21.7433333,24.2183333 27.3716667,23.3383333 31.24,19.47 C35.1083333,15.6016667 35.9883333,9.955 33.1833333,7.15 Z" id="tennis_gradiant" fill="#2A313F" fill-rule="nonzero"></path>
    </g>
</svg>